<svg width="120" height="290" xmlns="http://www.w3.org/2000/svg"><style>line,path,rect{stroke:#000;stroke-width:2}.red{fill:#f99}.yellow{fill:#ff9}.green{fill:#9f9}.teal{fill:#9ff}.blue{fill:#99f}.purple{fill:#f9f}.l-red{stroke:#b31919}.l-yellow{stroke:#b3b319}.l-green{stroke:#19b319}.l-teal{stroke:#19b3b3}.l-blue{stroke:#1919b3}.l-purple{stroke:#b319b3}text{text-anchor:middle;font-family:Helvetica,Arial,sans-serif;font-size:22px;fill:#000}</style><path class="l-teal" d="M20 40l40 30"/><path class="l-green" d="M40 40L20 70"/><path class="l-yellow" d="M60 40L40 70"/><path class="l-blue" d="M80 40l20 30"/><path class="l-red" d="M100 40L80 70"/><path class="teal" d="M10 10h20v30H10z"/><path class="green" d="M30 10h20v30H30z"/><path class="yellow" d="M50 10h20v30H50z"/><path class="blue" d="M70 10h20v30H70z"/><path class="red" d="M90 10h20v30H90z"/><text y="23" x="10" transform="translate(10 10)">9</text><text y="23" x="30" transform="translate(10 10)">6</text><text y="23" x="50" transform="translate(10 10)">2</text><text y="23" x="70" transform="translate(10 10)">9</text><text y="23" x="90" transform="translate(10 10)">1</text><g><path class="l-green" d="M20 100l20 30"/><path class="l-yellow" d="M40 100l-20 30"/><path class="l-teal" d="M60 100l20 30"/><path class="l-red" d="M80 100l-20 30"/><path class="l-blue" d="M100 100v30"/><path class="green" d="M10 70h20v30H10z"/><path class="yellow" d="M30 70h20v30H30z"/><path class="teal" d="M50 70h20v30H50z"/><path class="red" d="M70 70h20v30H70z"/><path class="blue" d="M90 70h20v30H90z"/><text y="23" x="10" transform="translate(10 70)">6</text><text y="23" x="30" transform="translate(10 70)">2</text><text y="23" x="50" transform="translate(10 70)">9</text><text y="23" x="70" transform="translate(10 70)">1</text><text y="23" x="90" transform="translate(10 70)">9</text></g><g><path class="l-yellow" d="M20 160v30"/><path class="l-green" d="M40 160l20 30"/><path class="l-red" d="M60 160l-20 30"/><path class="l-teal" d="M80 160v30"/><path class="l-blue" d="M100 160v30"/><path class="yellow" d="M10 130h20v30H10z"/><path class="green" d="M30 130h20v30H30z"/><path class="red" d="M50 130h20v30H50z"/><path class="teal" d="M70 130h20v30H70z"/><path class="blue" d="M90 130h20v30H90z"/><text y="23" x="10" transform="translate(10 130)">2</text><text y="23" x="30" transform="translate(10 130)">6</text><text y="23" x="50" transform="translate(10 130)">1</text><text y="23" x="70" transform="translate(10 130)">9</text><text y="23" x="90" transform="translate(10 130)">9</text></g><g><path class="l-yellow" d="M20 220l20 30"/><path class="l-red" d="M40 220l-20 30"/><path class="l-green" d="M60 220v30"/><path class="l-teal" d="M80 220v30"/><path class="l-blue" d="M100 220v30"/><path class="yellow" d="M10 190h20v30H10z"/><path class="red" d="M30 190h20v30H30z"/><path class="green" d="M50 190h20v30H50z"/><path class="teal" d="M70 190h20v30H70z"/><path class="blue" d="M90 190h20v30H90z"/><text y="23" x="10" transform="translate(10 190)">2</text><text y="23" x="30" transform="translate(10 190)">1</text><text y="23" x="50" transform="translate(10 190)">6</text><text y="23" x="70" transform="translate(10 190)">9</text><text y="23" x="90" transform="translate(10 190)">9</text></g><g><path class="red" d="M10 250h20v30H10z"/><path class="yellow" d="M30 250h20v30H30z"/><path class="green" d="M50 250h20v30H50z"/><path class="teal" d="M70 250h20v30H70z"/><path class="blue" d="M90 250h20v30H90z"/><text y="23" x="10" transform="translate(10 250)">1</text><text y="23" x="30" transform="translate(10 250)">2</text><text y="23" x="50" transform="translate(10 250)">6</text><text y="23" x="70" transform="translate(10 250)">9</text><text y="23" x="90" transform="translate(10 250)">9</text></g></svg>